<?xml version="1.0" encoding="iso-8859-1"?>
<!-- Generator: Adobe Illustrator 18.0.0, SVG Export Plug-In . SVG Version: 6.00 Build 0)  -->
<!DOCTYPE svg PUBLIC "-//W3C//DTD SVG 1.1//EN" "http://www.w3.org/Graphics/SVG/1.1/DTD/svg11.dtd">
<svg version="1.1" id="Capa_1" xmlns="http://www.w3.org/2000/svg" xmlns:xlink="http://www.w3.org/1999/xlink" x="0px" y="0px"
	 viewBox="0 0 288.488 288.488" style="enable-background:new 0 0 288.488 288.488;" xml:space="preserve">
<g>
	<path style="fill:#231F20;" d="M280.988,0.001h-86.496c-4.136,0-7.5,3.364-7.5,7.5v20c0,4.135,3.364,7.5,7.5,7.5h58.996v218.487H35
		V35h58.996c4.136,0,7.5-3.364,7.5-7.5v-20c0-4.135-3.364-7.5-7.5-7.5H7.5C3.365,0,0,3.365,0,7.5v273.488c0,4.135,3.365,7.5,7.5,7.5
		h273.488c4.135,0,7.5-3.365,7.5-7.5V7.501C288.488,3.365,285.124,0.001,280.988,0.001z"/>
	<path style="fill:#231F20;" d="M87.489,97.032c-2.003,0-3.887,0.78-5.303,2.197l-14.143,14.142c-1.416,1.416-2.197,3.3-2.197,5.303
		c0,2.003,0.78,3.886,2.197,5.304l70.898,70.899c1.417,1.416,3.3,2.196,5.303,2.196s3.886-0.78,5.303-2.196l70.898-70.898
		c1.416-1.417,2.197-3.3,2.197-5.303c0-2.004-0.78-3.887-2.197-5.304l-14.143-14.142c-1.416-1.416-3.3-2.196-5.303-2.196
		c-2.003,0-3.887,0.78-5.303,2.197l-33.952,33.952V25.43c0-4.136-3.364-7.5-7.5-7.5h-20c-4.136,0-7.5,3.364-7.5,7.5v107.751
		L92.793,99.229C91.376,97.813,89.493,97.032,87.489,97.032z"/>
</g>
<g>
</g>
<g>
</g>
<g>
</g>
<g>
</g>
<g>
</g>
<g>
</g>
<g>
</g>
<g>
</g>
<g>
</g>
<g>
</g>
<g>
</g>
<g>
</g>
<g>
</g>
<g>
</g>
<g>
</g>
</svg>
